ply
format ascii 1.0
element vertex 22
property float x
property float y
property float z
end_header
-15.4308 11.1728 2.50667 
-15.5942 18.6894 2.5083 
-13.3137 21.8284 2.50828 
-12.1278 23.4268 2.49688 
-13.9287 28.0733 2.53819 
-23.2485 29.1819 1.9353 
-23.8189 34.1252 3.31676 
-18.1979 38.6389 3.01058 
-6.24855 41.1391 2.43741 
1.96104 36.7837 1.48699 
3.02844 32.3323 1.39691 
-1.60793 31.4439 2.39268 
0.0741291 25.2933 2.28005 
9.10616 26.8633 2.47502 
0.0260692 13.5095 2.47684 
0.597584 5.46562 2.49938 
0.528129 -2.89072 2.63829 
-7.95105 -3.50972 2.09467 
-20.2844 -3.38444 2.20728 
-21.3792 4.4919 2.40722 
-20.6779 10.9371 2.46769 
-16.2581 11.0576 2.44885 
